<svg width="24" height="24" viewBox="0 0 24 24" fill="none" xmlns="http://www.w3.org/2000/svg">
<path d="M2.99959 5.0001C2.86708 4.99823 2.73552 5.02271 2.61255 5.07212C2.48958 5.12153 2.37766 5.1949 2.28329 5.28794C2.18892 5.38098 2.11399 5.49186 2.06284 5.61411C2.01169 5.73637 1.98535 5.86757 1.98535 6.0001C1.98535 6.13263 2.01169 6.26383 2.06284 6.38609C2.11399 6.50834 2.18892 6.61922 2.28329 6.71226C2.37766 6.8053 2.48958 6.87867 2.61255 6.92808C2.73552 6.97749 2.86708 7.00197 2.99959 7.0001H20.9996C21.1321 7.00197 21.2637 6.97749 21.3866 6.92808C21.5096 6.87867 21.6215 6.8053 21.7159 6.71226C21.8103 6.61922 21.8852 6.50834 21.9363 6.38609C21.9875 6.26383 22.0138 6.13263 22.0138 6.0001C22.0138 5.86757 21.9875 5.73637 21.9363 5.61411C21.8852 5.49186 21.8103 5.38098 21.7159 5.28794C21.6215 5.1949 21.5096 5.12153 21.3866 5.07212C21.2637 5.02271 21.1321 4.99823 20.9996 5.0001H2.99959ZM2.99959 11.0001C2.86708 10.9982 2.73552 11.0227 2.61255 11.0721C2.48958 11.1215 2.37766 11.1949 2.28329 11.2879C2.18892 11.381 2.11399 11.4919 2.06284 11.6141C2.01169 11.7364 1.98535 11.8676 1.98535 12.0001C1.98535 12.1326 2.01169 12.2638 2.06284 12.3861C2.11399 12.5083 2.18892 12.6192 2.28329 12.7123C2.37766 12.8053 2.48958 12.8787 2.61255 12.9281C2.73552 12.9775 2.86708 13.002 2.99959 13.0001H20.9996C21.1321 13.002 21.2637 12.9775 21.3866 12.9281C21.5096 12.8787 21.6215 12.8053 21.7159 12.7123C21.8103 12.6192 21.8852 12.5083 21.9363 12.3861C21.9875 12.2638 22.0138 12.1326 22.0138 12.0001C22.0138 11.8676 21.9875 11.7364 21.9363 11.6141C21.8852 11.4919 21.8103 11.381 21.7159 11.2879C21.6215 11.1949 21.5096 11.1215 21.3866 11.0721C21.2637 11.0227 21.1321 10.9982 20.9996 11.0001H2.99959ZM2.99959 17.0001C2.86708 16.9982 2.73552 17.0227 2.61255 17.0721C2.48958 17.1215 2.37766 17.1949 2.28329 17.2879C2.18892 17.381 2.11399 17.4919 2.06284 17.6141C2.01169 17.7364 1.98535 17.8676 1.98535 18.0001C1.98535 18.1326 2.01169 18.2638 2.06284 18.3861C2.11399 18.5083 2.18892 18.6192 2.28329 18.7123C2.37766 18.8053 2.48958 18.8787 2.61255 18.9281C2.73552 18.9775 2.86708 19.002 2.99959 19.0001H20.9996C21.1321 19.002 21.2637 18.9775 21.3866 18.9281C21.5096 18.8787 21.6215 18.8053 21.7159 18.7123C21.8103 18.6192 21.8852 18.5083 21.9363 18.3861C21.9875 18.2638 22.0138 18.1326 22.0138 18.0001C22.0138 17.8676 21.9875 17.7364 21.9363 17.6141C21.8852 17.4919 21.8103 17.381 21.7159 17.2879C21.6215 17.1949 21.5096 17.1215 21.3866 17.0721C21.2637 17.0227 21.1321 16.9982 20.9996 17.0001H2.99959Z" fill="white"/>
</svg>
