<svg width="36" height="36" viewBox="0 0 36 36" fill="none" xmlns="http://www.w3.org/2000/svg">
<path d="M18 36C27.9411 36 36 27.9411 36 18C36 8.05887 27.9411 0 18 0C8.05887 0 0 8.05887 0 18C0 27.9411 8.05887 36 18 36Z" fill="white"/>
<path d="M18.0032 13.9563C15.7673 13.9563 13.9638 15.7599 13.9638 17.9958C13.9638 20.2317 15.7673 22.0352 18.0032 22.0352C20.2391 22.0352 22.0427 20.2317 22.0427 17.9958C22.0427 15.7599 20.2391 13.9563 18.0032 13.9563ZM18.0032 20.622C16.5583 20.622 15.377 19.4442 15.377 17.9958C15.377 16.5474 16.5548 15.3696 18.0032 15.3696C19.4516 15.3696 20.6294 16.5474 20.6294 17.9958C20.6294 19.4442 19.4481 20.622 18.0032 20.622ZM23.1501 13.7911C23.1501 14.3149 22.7282 14.7333 22.2079 14.7333C21.6841 14.7333 21.2657 14.3114 21.2657 13.7911C21.2657 13.2708 21.6876 12.8489 22.2079 12.8489C22.7282 12.8489 23.1501 13.2708 23.1501 13.7911ZM25.8255 14.7474C25.7657 13.4852 25.4774 12.3673 24.5528 11.4462C23.6317 10.5251 22.5138 10.2368 21.2516 10.1735C19.9509 10.0997 16.052 10.0997 14.7513 10.1735C13.4927 10.2333 12.3747 10.5216 11.4501 11.4427C10.5255 12.3638 10.2407 13.4817 10.1774 14.7438C10.1036 16.0446 10.1036 19.9434 10.1774 21.2442C10.2372 22.5063 10.5255 23.6243 11.4501 24.5454C12.3747 25.4665 13.4891 25.7548 14.7513 25.8181C16.052 25.8919 19.9509 25.8919 21.2516 25.8181C22.5138 25.7583 23.6317 25.47 24.5528 24.5454C25.4739 23.6243 25.7622 22.5063 25.8255 21.2442C25.8993 19.9434 25.8993 16.0481 25.8255 14.7474ZM24.145 22.6399C23.8708 23.329 23.3399 23.8599 22.6474 24.1376C21.6102 24.5489 19.1493 24.454 18.0032 24.454C16.8571 24.454 14.3927 24.5454 13.3591 24.1376C12.67 23.8634 12.1391 23.3325 11.8614 22.6399C11.4501 21.6028 11.545 19.1419 11.545 17.9958C11.545 16.8497 11.4536 14.3852 11.8614 13.3516C12.1356 12.6626 12.6665 12.1317 13.3591 11.854C14.3962 11.4427 16.8571 11.5376 18.0032 11.5376C19.1493 11.5376 21.6138 11.4462 22.6474 11.854C23.3364 12.1282 23.8673 12.6591 24.145 13.3516C24.5563 14.3888 24.4614 16.8497 24.4614 17.9958C24.4614 19.1419 24.5563 21.6063 24.145 22.6399Z" fill="black"/>
</svg>
