<svg width="36" height="36" viewBox="0 0 36 36" fill="none" xmlns="http://www.w3.org/2000/svg">
<path d="M18 36C27.9411 36 36 27.9411 36 18C36 8.05887 27.9411 0 18 0C8.05887 0 0 8.05887 0 18C0 27.9411 8.05887 36 18 36Z" fill="white"/>
<path d="M13.6505 24.7506H10.3852V14.2354H13.6505V24.7506ZM12.0161 12.801C10.9719 12.801 10.125 11.9362 10.125 10.892C10.125 10.3905 10.3242 9.9095 10.6789 9.55486C11.0335 9.20021 11.5145 9.00098 12.0161 9.00098C12.5176 9.00098 12.9986 9.20021 13.3532 9.55486C13.7079 9.9095 13.9071 10.3905 13.9071 10.892C13.9071 11.9362 13.0598 12.801 12.0161 12.801ZM25.8715 24.7506H22.6132V19.6319C22.6132 18.412 22.5886 16.8475 20.9155 16.8475C19.2178 16.8475 18.9577 18.1729 18.9577 19.544V24.7506H15.6959V14.2354H18.8276V15.6698H18.8733C19.3092 14.8436 20.3741 13.9717 21.9628 13.9717C25.2675 13.9717 25.875 16.1479 25.875 18.9745V24.7506H25.8715Z" fill="black"/>
</svg>
